<svg width="485" height="486" xmlns="http://www.w3.org/2000/svg" xmlns:xlink="http://www.w3.org/1999/xlink" overflow="hidden"><defs><clipPath id="clip0"><rect x="412" y="115" width="485" height="486"/></clipPath></defs><g clip-path="url(#clip0)" transform="translate(-412 -115)"><path d="M413 196.668C413 152.116 449.116 116 493.668 116L816.332 116C860.884 116 897 152.116 897 196.668L897 519.332C897 563.884 860.884 600 816.332 600L493.668 600C449.116 600 413 563.884 413 519.332Z" fill="#FFB6B9" fill-rule="evenodd"/><path d="M413.545 187.665 896.561 428.793 896.219 526.238 413.391 279.293 413.545 187.665Z" fill="#FAE3D9" fill-rule="evenodd"/><path d="M683.704 330.018C854.522 188.968 1021.03 521.079 552.591 561.502 346.383 138.958 716.84 110.984 683.704 330.018Z" fill="#FF8794" fill-rule="evenodd"/><path d="M412.662 322.713 823.075 599.926 656.973 600.051 413.078 451.449 412.662 322.713Z" fill="#BBDED9" fill-rule="evenodd"/></g></svg>